<svg width="43" height="48" viewBox="0 0 43 48" fill="none" xmlns="http://www.w3.org/2000/svg">
<g clip-path="url(#clip0_24:164)">
<path d="M24.6134 22.3594C24.6134 20.3117 22.9363 18.6347 20.8887 18.6347H17.8775C16.6081 18.6347 15.5797 17.6062 15.5797 16.3369C15.5797 15.0676 16.6081 14.0391 17.8775 14.0391H21.6392C22.4916 14.0391 23.1865 14.734 23.1865 15.5864C23.1865 15.9756 23.5015 16.2998 23.8999 16.2998C24.2891 16.2998 24.6134 15.9848 24.6134 15.5864C24.6134 13.9464 23.2792 12.6215 21.6392 12.6122H20.0919V10.3144C20.0919 9.9253 19.7769 9.60101 19.3785 9.60101C18.9893 9.60101 18.665 9.91603 18.665 10.3144V12.6122H17.8682C15.8113 12.6122 14.1436 14.28 14.1436 16.3369C14.1436 18.3938 15.8113 20.0616 17.8682 20.0616H20.8887C22.1581 20.0616 23.1865 21.09 23.1865 22.3594C23.1865 23.6287 22.1581 24.6572 20.8887 24.6572H17.127C16.2746 24.6572 15.5797 23.9623 15.5797 23.1098C15.5797 22.7207 15.2647 22.3964 14.8662 22.3964C14.4771 22.3964 14.1528 22.7114 14.1528 23.1098C14.1528 24.7498 15.487 26.0748 17.127 26.084H18.665V28.3818C18.665 28.771 18.98 29.0952 19.3785 29.0952C19.7676 29.0952 20.0919 28.7802 20.0919 28.3818V26.084H20.8887C22.9363 26.084 24.6041 24.4163 24.6134 22.3594Z" fill="black"/>
<path d="M42.3935 33.3943C41.7079 30.4294 39.827 27.8352 37.2142 26.2693L36.9177 26.0933L37.0382 25.769C37.7887 23.7028 38.1685 21.544 38.1593 19.3481C38.1593 8.98949 29.7371 0.567318 19.3785 0.567318C9.01983 0.567318 0.597656 8.98949 0.597656 19.3481C0.597656 29.7067 9.01983 38.1289 19.3785 38.1289C19.573 38.1289 19.7861 38.1289 20.0363 38.1197L20.3791 38.1104L20.4532 38.4439C21.1296 41.3718 22.8993 43.8642 25.4473 45.4578C27.9952 47.0514 31.0157 47.561 33.9436 46.8846C39.9938 45.4856 43.7833 39.4353 42.3935 33.3943ZM20.3235 34.0892C20.2216 34.6915 20.1753 35.303 20.1753 35.9145C20.1753 36.035 20.1753 36.1554 20.1845 36.2759L20.1938 36.6928L19.7769 36.7021C19.6472 36.7021 19.5174 36.7021 19.3877 36.7021C9.80739 36.7021 2.02452 28.9192 2.02452 19.3481C2.02452 9.77704 9.80739 1.99418 19.3785 1.99418C28.9495 1.99418 36.7324 9.77704 36.7324 19.3481C36.7324 21.3031 36.4081 23.221 35.7688 25.0648L35.6298 25.4632L35.2314 25.3243C34.5458 25.0741 33.8324 24.898 33.1097 24.7869L32.6093 24.7127L32.7854 24.2309C33.3598 22.6651 33.6471 21.0159 33.6471 19.3481C33.6471 11.4819 27.2447 5.07953 19.3785 5.07953C11.5122 5.07953 5.10987 11.4819 5.10987 19.3481C5.10987 27.2144 11.5122 33.6167 19.3785 33.6167C19.5452 33.6167 19.7213 33.6167 19.8973 33.6074L20.4069 33.5889L20.3235 34.0892ZM20.8331 32.1065L20.5737 32.1343C20.166 32.1713 19.7583 32.1899 19.3785 32.1899C12.2998 32.1899 6.53673 26.4268 6.53673 19.3481C6.53673 12.2694 12.2998 6.50639 19.3785 6.50639C26.4572 6.50639 32.2202 12.2694 32.2202 19.3481C32.2295 21.0993 31.8774 22.8133 31.1732 24.4255L31.0713 24.6664L30.8119 24.6849C26.4016 24.9258 22.5194 27.7518 20.9258 31.8748L20.8331 32.1065ZM31.4234 45.745C26.0032 45.745 21.5929 41.3347 21.5929 35.9145C21.5929 30.4943 26.0032 26.084 31.4234 26.084C36.8436 26.084 41.2539 30.4943 41.2539 35.9145C41.2446 41.3255 36.8436 45.7357 31.4234 45.745Z" fill="black"/>
<path d="M34.4346 39.7133H29.1627C28.3103 39.7133 27.6154 39.0184 27.6154 38.166V35.1547C27.6154 34.3023 28.3103 33.6074 29.1627 33.6074H32.7113L30.9231 35.4049C30.6451 35.6829 30.6359 36.1369 30.9138 36.4148C31.1918 36.6928 31.6458 36.702 31.9237 36.4241L31.933 36.4148L34.9442 33.4036C35.2222 33.1256 35.2222 32.6716 34.9442 32.3937L31.933 29.3824C31.8033 29.2527 31.618 29.1786 31.4327 29.1786C31.2381 29.1786 31.0621 29.2527 30.9323 29.3917C30.6637 29.6697 30.6637 30.1144 30.9323 30.3924L32.7298 32.1898H29.1812C27.5412 32.1898 26.2163 33.524 26.207 35.164V38.1752C26.207 39.8152 27.5412 41.1401 29.1812 41.1494H34.4532C34.8423 41.1494 35.1666 40.8344 35.1666 40.436C35.1666 40.0376 34.833 39.7133 34.4346 39.7133Z" fill="black"/>
</g>
<defs>
<clipPath id="clip0_24:164">
<rect width="42.0831" height="46.6046" fill="white" transform="translate(0.597656 0.567318)"/>
</clipPath>
</defs>
</svg>
