<svg width="41" height="48" viewBox="0 0 41 48" fill="none" xmlns="http://www.w3.org/2000/svg">
<g clip-path="url(#clip0_24:182)">
<path d="M1.09306 46.9526C1.22099 47.0896 1.41289 47.1719 1.60479 47.1719H39.6652C39.8571 47.1719 40.0399 47.0896 40.1769 46.9526C40.3049 46.8155 40.378 46.6236 40.3688 46.4317L38.7788 15.5082C38.7788 15.4991 38.7788 15.4899 38.7788 15.4808C38.7788 15.4534 38.7697 15.4259 38.7697 15.3985V15.3803C38.7697 15.3711 38.7697 15.362 38.7697 15.362C38.7605 15.3254 38.7514 15.2889 38.7331 15.2615C38.7331 15.2523 38.724 15.2523 38.724 15.2432L38.7057 15.2066C38.7057 15.1975 38.6965 15.1884 38.6965 15.1792L36.3206 11.2133C36.1927 11.0031 35.9642 10.8751 35.7175 10.8751H34.2554L34.8311 8.39871C34.8768 8.21595 34.8402 8.02405 34.7489 7.8687C34.6483 7.71335 34.493 7.59455 34.3102 7.558L27.1642 5.88572L27.1551 5.83089C26.488 2.77875 23.7557 0.567314 20.6304 0.567314C18.5195 0.567314 16.5091 1.59079 15.2572 3.29962C15.2298 3.33617 15.2024 3.391 15.1749 3.44583L15.1567 3.49152L6.20128 4.55155C5.81748 4.59724 5.54334 4.94449 5.58903 5.32829L6.24697 10.8751H5.57075C5.32402 10.8751 5.09557 11.0031 4.96763 11.2133L2.59171 15.1792C2.58258 15.1884 2.58258 15.2066 2.57344 15.2158L2.5643 15.2432C2.54602 15.2889 2.52775 15.3254 2.51861 15.362V15.3803C2.50947 15.4168 2.50947 15.4534 2.50033 15.4899V15.5082L0.901157 46.4317C0.892019 46.6236 0.965124 46.8155 1.09306 46.9526ZM33.9082 12.2824H35.3063L36.8415 14.8411H33.3142L33.9082 12.2824ZM33.2868 8.76424L31.8612 14.8411H27.1276L25.6564 8.71854C25.6107 8.53578 25.5011 8.38043 25.3366 8.27991C25.1812 8.17939 24.9893 8.15198 24.8066 8.19767L23.381 8.54492L23.8471 6.5528L33.2868 8.76424ZM25.693 14.8411H13.6215L13.0549 12.4743L24.4684 9.73288L25.693 14.8411ZM17.4503 3.04375C18.3642 2.34925 19.4973 1.96545 20.6304 1.96545C22.787 1.96545 24.7609 3.32704 25.5376 5.35571L25.6016 5.52019L23.4907 5.02673C23.3079 4.98104 23.116 5.01759 22.9607 5.11811C22.8053 5.21863 22.6865 5.37398 22.65 5.55674L21.8641 8.91958L20.9046 9.14804L20.2466 3.60118C20.2283 3.41842 20.1278 3.24479 19.9816 3.13513C19.8354 3.01634 19.6526 2.97065 19.4607 2.98892L17.1853 3.25393L17.4503 3.04375ZM18.9307 4.46017L19.5247 9.47701L12.0406 11.2772C11.6659 11.3686 11.4283 11.7433 11.5197 12.1271L12.1776 14.8502H8.1203L7.06027 5.8583L18.9307 4.46017ZM5.96369 12.2824H6.40232L6.70388 14.8411H4.41934L5.96369 12.2824ZM2.34498 45.6732L3.85278 16.2484H37.4081V16.3306L38.9159 45.7646H2.34498V45.6732Z" fill="black"/>
<path d="M20.6314 32.1031C24.2958 32.1031 27.2839 29.124 27.2839 25.4505V22.4715L27.3479 22.4532C28.2617 22.1333 28.874 21.2652 28.874 20.2966C28.874 19.0355 27.8505 18.012 26.5894 18.012C25.3284 18.012 24.3049 19.0355 24.3049 20.2966C24.3049 21.2652 24.9171 22.1242 25.831 22.4532L25.8949 22.4715V25.4505C25.8949 28.3473 23.5373 30.6958 20.6496 30.6958C17.7528 30.6958 15.4043 28.3382 15.4043 25.4505V22.4715L15.4683 22.4532C16.3821 22.1333 16.9944 21.2652 16.9944 20.2966C16.9944 19.0355 15.9709 18.012 14.7098 18.012C13.4488 18.012 12.4253 19.0355 12.4253 20.2966C12.4253 21.2652 13.0375 22.1242 13.9514 22.4532L14.0153 22.4715V25.4505C13.9879 29.124 16.967 32.1031 20.6314 32.1031ZM25.8584 20.8266L25.7944 20.6895C25.7304 20.5616 25.703 20.4336 25.703 20.3057C25.703 19.8214 26.096 19.4193 26.5894 19.4193C27.0829 19.4193 27.4758 19.8123 27.4758 20.3057C27.4758 20.4611 27.4301 20.6073 27.357 20.7443L27.2748 20.8814L27.1926 20.7443C27.0646 20.525 26.8362 20.3971 26.5894 20.3971H26.5255C26.297 20.3971 26.0777 20.5068 25.9498 20.6987L25.8584 20.8266ZM13.924 20.7443C13.8417 20.6073 13.8052 20.4519 13.8052 20.3057C13.8052 19.8214 14.1981 19.4193 14.6916 19.4193C15.185 19.4193 15.578 19.8123 15.578 20.3057C15.578 20.4611 15.5323 20.6073 15.4592 20.7443L15.3769 20.8814L15.2947 20.7443C15.1667 20.525 14.9383 20.3971 14.6916 20.3971C14.4448 20.3971 14.2164 20.525 14.0884 20.7443L14.0062 20.8814L13.924 20.7443Z" fill="black"/>
</g>
<defs>
<clipPath id="clip0_24:182">
<rect width="39.4677" height="46.6046" fill="white" transform="translate(0.901855 0.567314)"/>
</clipPath>
</defs>
</svg>
