<svg width="48" height="48" viewBox="0 0 48 48" fill="none" xmlns="http://www.w3.org/2000/svg">
<g clip-path="url(#clip0_24:172)">
<path d="M30.7598 21.4848C30.7598 26.8916 33.1082 31.1334 36.1029 31.1334C39.0976 31.1334 41.446 26.8916 41.446 21.4848C41.446 16.0779 39.0976 11.8362 36.1029 11.8362C33.1082 11.8362 30.7598 16.0779 30.7598 21.4848ZM40.1717 21.4848C40.1717 26.0269 38.3057 29.859 36.1029 29.859C33.9001 29.859 32.0341 26.0269 32.0341 21.4848C32.0341 16.9426 33.9001 13.1105 36.1029 13.1105C38.3057 13.1105 40.1717 16.9517 40.1717 21.4848Z" fill="black"/>
<path d="M46.7345 0.567314H25.4712C25.1162 0.567314 24.834 0.84949 24.834 1.20449V4.37214C24.834 4.38124 24.834 4.39035 24.834 4.40855C24.834 4.41765 24.834 4.42676 24.834 4.43586L26.7091 23.3417H25.9627V22.7227C25.9627 21.2026 24.8886 19.8918 23.3958 19.5914C23.2866 17.1884 22.4764 14.8673 21.0565 12.9102L19.4817 10.7348C19.3634 10.5709 19.1723 10.4708 18.972 10.4708C18.7717 10.4617 18.5806 10.5527 18.4623 10.7166L16.569 13.1924C15.3401 14.7853 13.4468 15.7229 11.4352 15.7229C9.21417 15.7229 7.32996 17.3704 7.03868 19.5823C5.53678 19.8645 4.44448 21.1844 4.44448 22.7136V23.3326H3.58885C3.23386 23.3326 2.95168 23.6147 2.95168 23.9697V28.166H1.40426C1.04927 28.166 0.76709 28.4481 0.76709 28.8031V35.985C0.776192 39.9536 2.10515 43.8131 4.54461 46.9443C4.66294 47.0991 4.85409 47.1901 5.04524 47.1901H25.3437C25.544 47.1901 25.726 47.0991 25.8444 46.9443C26.8092 45.6973 27.6102 44.3319 28.2201 42.8755V45.0783C28.2201 46.2343 29.1576 47.1719 30.3137 47.1719H41.8192C42.9752 47.1719 43.9127 46.2343 43.9127 45.0783V38.8795C43.9491 38.8158 43.9673 38.743 43.9764 38.6702L47.3717 4.43586V4.40855C47.3717 4.39945 47.3717 4.39035 47.3717 4.37214V1.20449C47.3717 0.84949 47.0895 0.567314 46.7345 0.567314ZM5.70062 22.7227C5.70062 21.6668 6.56535 20.8112 7.62124 20.8112H13.019C13.374 20.8112 13.6562 20.529 13.6562 20.174C13.6562 19.819 13.374 19.5368 13.019 19.5368H8.32213C8.62251 18.0713 9.91506 17.0155 11.417 17.0063C13.82 16.9972 16.0956 15.8776 17.5611 13.9752L18.9356 12.182L20.0097 13.6657C21.2567 15.377 21.9849 17.416 22.0941 19.5368H20.8653C20.5103 19.5368 20.2281 19.819 20.2281 20.174C20.2281 20.529 20.5103 20.8112 20.8653 20.8112H22.6312C22.6494 20.8112 22.6767 20.8112 22.6949 20.8021C22.7131 20.8021 22.7313 20.8112 22.7495 20.8112H22.7586C23.8145 20.8112 24.6701 21.6668 24.6701 22.7227V23.3417H5.70062V22.7227ZM4.20782 27.0282H11.9631C12.3181 27.0282 12.6003 26.746 12.6003 26.391C12.6003 26.036 12.3181 25.7538 11.9631 25.7538H4.20782V24.616H26.172V25.7538H18.4259C18.0709 25.7538 17.7887 26.036 17.7887 26.391C17.7887 26.746 18.0709 27.0282 18.4259 27.0282H26.1811V28.1751H4.20782V27.0282ZM28.3475 35.9941C28.3475 36.3218 28.3293 36.6677 28.3111 37.0044C28.3111 37.05 28.3111 37.1046 28.302 37.1501C28.2747 37.4778 28.2474 37.8146 28.2019 38.1423C27.8287 40.964 26.7364 43.6492 25.0251 45.934H5.35473C3.20655 43.0576 2.05054 39.5713 2.04143 35.9941V29.4494H28.3475V35.9941ZM42.6475 45.0783C42.6475 45.5334 42.2834 45.8975 41.8283 45.8975H30.3137C29.8585 45.8975 29.4944 45.5334 29.4944 45.0783V41.7468H42.6384V45.0783H42.6475ZM42.6475 40.4725H29.4944V39.2436H42.6384V40.4725H42.6475ZM42.7658 37.9693H29.5126C29.5126 37.9238 29.5217 37.8874 29.5217 37.8419C29.5491 37.5961 29.5673 37.3503 29.5855 37.1137C29.5855 37.0409 29.5946 36.968 29.6037 36.8952C29.6219 36.5948 29.631 36.2945 29.631 35.9941V28.8122C29.631 28.4572 29.3488 28.1751 28.9938 28.1751H28.475L26.1811 5.00931H46.0336L42.7658 37.9693ZM46.0973 3.73497H26.1083V1.84166H46.0973V3.73497Z" fill="black"/>
<path d="M18.517 19.5368H17.2426C16.8876 19.5368 16.6055 19.819 16.6055 20.174C16.6055 20.529 16.8876 20.8111 17.2426 20.8111H18.517C18.872 20.8111 19.1542 20.529 19.1542 20.174C19.1542 19.819 18.872 19.5368 18.517 19.5368Z" fill="black"/>
<path d="M15.0397 32.344C9.63286 32.344 5.39111 34.6924 5.39111 37.6872C5.39111 40.6819 9.63286 43.0303 15.0397 43.0303C20.4466 43.0303 24.6883 40.6819 24.6883 37.6872C24.6883 34.6924 20.4466 32.344 15.0397 32.344ZM15.0397 41.756C10.4976 41.756 6.66546 39.8899 6.66546 37.6872C6.66546 35.4844 10.4976 33.6184 15.0397 33.6184C19.5818 33.6184 23.414 35.4844 23.414 37.6872C23.414 39.8899 19.5727 41.756 15.0397 41.756Z" fill="black"/>
</g>
<defs>
<clipPath id="clip0_24:172">
<rect width="46.6046" height="46.6319" fill="white" transform="translate(0.76709 0.567314)"/>
</clipPath>
</defs>
</svg>
