<svg width="115" height="26" viewBox="0 0 115 26" fill="none" xmlns="http://www.w3.org/2000/svg">
<g clip-path="url(#clip0_70_734)">
<path d="M114.791 2.65197C114.453 2.07997 113.879 2.05397 113.123 2.54797C95.7117 12.636 76.7362 17.68 56.2489 17.68C42.5907 17.68 29.1149 15.132 15.7956 10.062C15.4567 9.93197 14.9354 9.72397 14.2838 9.43797C13.6321 9.15197 13.163 8.94397 12.8763 8.81397C11.8336 8.39797 10.9995 8.60597 10.4261 9.43797C9.82661 10.27 10.0351 11.024 10.9995 11.726C12.2507 12.636 13.8667 13.676 15.7956 14.846C21.7906 18.382 28.4893 21.138 35.8658 23.088C43.2423 25.038 50.4624 26 57.5 26C68.3692 26 78.6389 24.102 88.3352 20.306C98.0315 16.536 106.711 11.18 114.374 4.31597C114.791 3.97797 115 3.61397 115 3.27597C115 3.06797 114.922 2.85997 114.791 2.65197Z" fill="#E40000"/>
<path d="M21.4256 4.42003C21.2953 4.13403 21.0867 3.87403 20.8 3.58803C19.0537 2.41803 17.3855 1.61203 15.7694 1.19603C13.1108 0.494029 10.5303 0.130029 8.02804 0.0520289C7.32427 -0.0259711 6.67264 0.0260289 6.04707 0.156029C2.91924 0.442029 1.01647 0.962029 0.3909 1.71603C0.104181 2.13203 -0.0261383 2.75603 -0.0261383 3.58803V4.31603C-0.0261383 6.76003 0.625488 9.62003 1.95482 12.922C3.28415 16.224 5.13479 18.876 7.50673 20.904C7.84558 21.19 8.15836 21.32 8.44508 21.32C8.57541 21.32 8.73179 21.294 8.86212 21.216C9.27916 21.008 9.38343 20.618 9.17491 20.072C6.59444 14.014 5.31725 9.82803 5.31725 7.46203C5.31725 6.70803 5.44757 6.13603 5.73428 5.79803C6.43805 4.96603 8.39294 4.55003 11.599 4.55003C12.7719 4.55003 14.1794 4.62803 15.7694 4.75803C17.5158 4.96603 19.1058 5.17403 20.5654 5.38203C20.9825 5.38203 21.2692 5.30403 21.3995 5.17403C21.5299 5.04403 21.582 4.88803 21.5038 4.75803C21.5299 4.65403 21.5038 4.55003 21.4256 4.42003Z" fill="#E40000"/>
</g>
<defs>
<clipPath id="clip0_70_734">
<rect width="115" height="26" fill="white" transform="matrix(-1 0 0 1 115 0)"/>
</clipPath>
</defs>
</svg>
